<svg xmlns="http://www.w3.org/2000/svg" viewBox="0 0 64 64" width="64" height="64">
  <!-- Background circle -->
  <circle cx="32" cy="32" r="30" fill="#0077BE" stroke="#00A8CC" stroke-width="2"/>
  
  <!-- Wave pattern -->
  <path d="M8 32c8 0 8-12 16-12s8 12 16 12 8-12 16-12 8 12 16 12" fill="none" stroke="#FFFFFF" stroke-width="3" stroke-linecap="round"/>
  <path d="M8 40c8 0 8-8 16-8s8 8 16 8 8-8 16-8 8 8 16 8" fill="none" stroke="rgba(255,255,255,0.6)" stroke-width="2" stroke-linecap="round"/>
  
  <!-- Small dots representing cleanup -->
  <circle cx="20" cy="45" r="2" fill="#2ECC71"/>
  <circle cx="32" cy="48" r="1.5" fill="#2ECC71"/>
  <circle cx="44" cy="45" r="2" fill="#2ECC71"/>
  
  <!-- Subtle gradient overlay -->
  <defs>
    <radialGradient id="shine" cx="0.3" cy="0.3" r="0.8">
      <stop offset="0%" stop-color="rgba(255,255,255,0.3)"/>
      <stop offset="100%" stop-color="rgba(255,255,255,0)"/>
    </radialGradient>
  </defs>
  <circle cx="32" cy="32" r="30" fill="url(#shine)"/>
</svg>